<svg viewBox="0 0 50 50" xmlns="http://www.w3.org/2000/svg" xmlns:xlink="http://www.w3.org/1999/xlink" version="1.1" class="jsx-2263963463 artboard-inner" style="width: 55px; height: 55px; max-height: 100%;"><g transform="translate(24.75 25) scale(1.4285714285714286)" id="lockup4-icon"><g fill="#232323"><g transform="translate(-17.325 -17.5) scale(0.3431372549019608)" id="container"><g fill="#232323"><circle vector-effect="non-scaling-stroke" cx="51" cy="51" r="50"></circle></g></g><g transform="translate(-10.915373364025468 -11.251652712284384) scale(0.2342606149341142)" id="icon"><g fill="#FFFFFF"><path d="M9.4 12.3C11 16.2 9 21.2 10.5 26c1.1 3.5 5.6 11.1 9.1 11.1 2.4 0 4.7-5.5 7.3-8.3 6.7-7.1 17.2-10.5 26.4-5.1 2.6 10.8-2.2 27.5-9.2 40.8-3.1 5.8-7.6 12.5-13.3 11-11.7-3.1-16-19.6-13.6-32.1C9 37 4 28.9 2.2 19c2.4-2.1 4.1-6.3 7.2-6.7z"></path><path d="M78.2 75.3c3.8-4 4.7-9.4 9.3-12 .1-.3.1-.5 0-1.1-.3-.7-.6-1.4-.8-2.1-1.4-4.1 0-10.5-1.5-15.1-4-12.3-16.6-12.9-29.1-17.3-.2 7.9-1.5 15.8-4 23.5-2.5 7.9-6.2 15.3-10.9 22-.1.3-.3.5-.4.8l1.1.3c12.6 3.5 26.9 9.5 36.1 1.3 0-.1.1-.2.2-.3z"></path></g></g></g></g></svg>
